<svg width="62" height="62" viewBox="0 0 62 62" fill="none" xmlns="http://www.w3.org/2000/svg">
<circle cx="31" cy="31" r="31" fill="white" fill-opacity="0.1"/>
<path d="M25.0672 15C26.1828 15 27.084 15.8937 27.084 17V19H35.1513V17C35.1513 15.8937 36.0525 15 37.1681 15C38.2836 15 39.1849 15.8937 39.1849 17V19H42.2101C43.8803 19 45.2353 20.3438 45.2353 22V25H17V22C17 20.3438 18.355 19 20.0252 19H23.0504V17C23.0504 15.8937 23.9517 15 25.0672 15ZM17 27H45.2353V44C45.2353 45.6562 43.8803 47 42.2101 47H20.0252C18.355 47 17 45.6562 17 44V27ZM37.7353 34.0625C38.3277 33.475 38.3277 32.525 37.7353 31.9438C37.1429 31.3625 36.1849 31.3563 35.5987 31.9438L29.6113 37.8813L26.6492 34.9438C26.0567 34.3563 25.0987 34.3563 24.5126 34.9438C23.9265 35.5313 23.9202 36.4812 24.5126 37.0625L28.5462 41.0625C29.1387 41.65 30.0966 41.65 30.6828 41.0625L37.7353 34.0625Z" fill="white" fill-opacity="0.8"/>
</svg>
