<svg width="62" height="62" viewBox="0 0 62 62" fill="none" xmlns="http://www.w3.org/2000/svg">
<circle cx="31" cy="31" r="31" fill="white" fill-opacity="0.1"/>
<g clip-path="url(#clip0_7_280)">
<path d="M31 17C30.4937 17 29.9937 17.0875 29.5187 17.2562L11.9875 23.5875C11.3937 23.8062 11 24.3687 11 25C11 25.6313 11.3937 26.1938 11.9875 26.4125L15.6062 27.7188C14.5812 29.3312 14 31.2375 14 33.2437V35C14 36.775 13.325 38.6062 12.6062 40.05C12.2 40.8625 11.7375 41.6625 11.2 42.4C11 42.6687 10.9437 43.0187 11.0562 43.3375C11.1687 43.6562 11.4312 43.8938 11.7562 43.975L15.7562 44.975C16.0187 45.0438 16.3 44.9938 16.5312 44.85C16.7625 44.7063 16.925 44.4688 16.975 44.2C17.5125 41.525 17.2437 39.125 16.8437 37.4062C16.6437 36.5188 16.375 35.6125 16 34.7812V33.2437C16 31.3562 16.6375 29.575 17.7437 28.15C18.55 27.1812 19.5937 26.4 20.8187 25.9187L30.6312 22.0625C31.1437 21.8625 31.725 22.1125 31.925 22.625C32.125 23.1375 31.875 23.7187 31.3625 23.9187L21.55 27.775C20.775 28.0812 20.0937 28.55 19.5375 29.125L29.5125 32.725C29.9875 32.8938 30.4875 32.9813 30.9937 32.9813C31.5 32.9813 32 32.8938 32.475 32.725L50.0125 26.4125C50.6062 26.2 51 25.6313 51 25C51 24.3687 50.6062 23.8062 50.0125 23.5875L32.4812 17.2562C32.0062 17.0875 31.5062 17 31 17ZM19 40.5C19 42.7062 24.375 45 31 45C37.625 45 43 42.7062 43 40.5L42.0437 31.4125L33.1562 34.625C32.4625 34.875 31.7312 35 31 35C30.2687 35 29.5312 34.875 28.8437 34.625L19.9562 31.4125L19 40.5Z" fill="white" fill-opacity="0.8"/>
</g>
<defs>
<clipPath id="clip0_7_280">
<rect width="40" height="32" fill="white" transform="translate(11 15)"/>
</clipPath>
</defs>
</svg>
