<svg width="62" height="62" viewBox="0 0 62 62" fill="none" xmlns="http://www.w3.org/2000/svg">
<circle cx="31" cy="31" r="31" fill="white" fill-opacity="0.1"/>
<path d="M31 15C31.663 15 32.2989 15.2634 32.7678 15.7322C33.2366 16.2011 33.5 16.837 33.5 17.5C33.5 18.163 33.2366 18.7989 32.7678 19.2678C32.2989 19.7366 31.663 20 31 20C30.337 20 29.7011 19.7366 29.2322 19.2678C28.7634 18.7989 28.5 18.163 28.5 17.5C28.5 16.837 28.7634 16.2011 29.2322 15.7322C29.7011 15.2634 30.337 15 31 15ZM33.7938 25.2688L34.4875 30.8125C34.5875 31.6375 34.0063 32.3812 33.1875 32.4875C32.3687 32.5937 31.6188 32.0063 31.5125 31.1875L31.2375 29H30.7625L30.4875 31.1875C30.3875 32.0125 29.6375 32.5937 28.8125 32.4875C27.9875 32.3812 27.4063 31.6375 27.5125 30.8125L28.2062 25.2625L26.9688 26.3125C26.3375 26.85 25.3875 26.7687 24.8562 26.1375C24.325 25.5062 24.4 24.5562 25.0312 24.025L26.775 22.55C27.9562 21.55 29.4562 21 31 21C32.5438 21 34.0438 21.55 35.225 22.5437L36.9688 24.0188C37.6 24.5563 37.6812 25.5 37.1437 26.1313C36.6062 26.7625 35.6625 26.8437 35.0312 26.3062L33.7938 25.2625V25.2688ZM13.5 19C14.8813 19 16 20.1187 16 21.5V24V29V31.5125C16 32.575 16.4187 33.5938 17.1687 34.3438L20.3625 37.5375C20.8813 38.0563 21.6938 38.1375 22.3 37.7313C23.1063 37.1938 23.2188 36.05 22.5312 35.3687L21.5813 34.4188L19.5813 32.4188C18.8 31.6375 18.8 30.3687 19.5813 29.5875C20.3625 28.8062 21.6313 28.8062 22.4125 29.5875L24.4125 31.5875L25.3625 32.5375L26.9438 34.1187C28.2563 35.4312 28.9937 37.2125 28.9937 39.0688V44C28.9937 45.6562 27.65 47 25.9937 47H21.8313C20.7688 47 19.75 46.5812 19 45.8312L12.7563 39.5875C11.6313 38.4625 11 36.9375 11 35.3438V29V25V21.5C11 20.1187 12.1187 19 13.5 19ZM48.5 19C49.8813 19 51 20.1187 51 21.5V25V29V35.3438C51 36.9375 50.3688 38.4625 49.2438 39.5875L43 45.8312C42.25 46.5812 41.2313 47 40.1688 47H36C34.3438 47 33 45.6562 33 44V39.0688C33 37.2125 33.7375 35.4312 35.05 34.1187L36.6313 32.5375L37.5812 31.5875L39.5812 29.5875C40.3625 28.8062 41.6313 28.8062 42.4125 29.5875C43.1938 30.3687 43.1938 31.6375 42.4125 32.4188L40.4125 34.4188L39.4625 35.3687C38.775 36.0562 38.8875 37.1938 39.6938 37.7313C40.3 38.1375 41.1125 38.0563 41.6313 37.5375L44.825 34.3438C45.575 33.5938 45.9938 32.575 45.9938 31.5125V29V24V21.5C45.9938 20.1187 47.1125 19 48.4938 19H48.5Z" fill="white" fill-opacity="0.8"/>
</svg>
